<?xml version="1.0" encoding="UTF-8"?>
<svg xmlns="http://www.w3.org/2000/svg" xmlns:xlink="http://www.w3.org/1999/xlink" width="91pt" height="102pt" viewBox="0 0 91 102" version="1.1">
<g id="surface1">
<path style=" stroke:none;fill-rule:nonzero;fill:rgb(81.25%,77.34375%,76.5625%);fill-opacity:1;" d="M 0.933594 30.269531 C 0.933594 44.296875 0.933594 58.320313 0.933594 72.347656 C 0.933594 75.386719 2.554688 78.191406 5.183594 79.710938 C 17.324219 86.722656 29.464844 93.730469 41.605469 100.742188 C 44.234375 102.261719 47.476563 102.261719 50.109375 100.742188 C 62.25 93.730469 74.390625 86.722656 86.527344 79.710938 C 89.160156 78.191406 90.78125 75.386719 90.78125 72.347656 C 90.78125 58.324219 90.78125 44.300781 90.78125 30.277344 C 90.78125 27.238281 89.160156 24.433594 86.527344 22.914063 C 74.390625 15.902344 62.25 8.894531 50.109375 1.882813 C 47.476563 0.363281 44.234375 0.363281 41.605469 1.882813 C 29.46875 8.890625 17.332031 15.898438 5.199219 22.90625 C 2.566406 24.425781 0.941406 27.230469 0.933594 30.269531 "/>
<path style=" stroke:none;fill-rule:nonzero;fill:rgb(0.392151%,39.598083%,62.693787%);fill-opacity:1;" d="M 45.855469 8.535156 L 8.820313 29.921875 L 8.820313 72.703125 L 45.855469 94.089844 L 82.894531 72.703125 L 82.894531 29.921875 L 45.855469 8.535156 "/>
<path style=" stroke:none;fill-rule:nonzero;fill:rgb(81.25%,77.34375%,76.5625%);fill-opacity:1;" d="M 45.855469 17.191406 C 43.402344 25.605469 35.78125 31.046875 30.992188 33.996094 C 26.207031 36.941406 24.25 37.394531 21.15625 39.441406 C 18.0625 41.488281 13.832031 45.128906 12.3125 49.933594 C 10.792969 54.734375 11.988281 60.699219 14.984375 64.167969 C 17.984375 67.636719 22.785156 68.609375 26.925781 67.988281 C 30.863281 67.394531 34.203125 65.355469 40.460938 61.945313 C 40.460938 69.257813 40.460938 76.570313 40.460938 83.882813 C 42.257813 83.882813 44.058594 83.882813 45.855469 83.882813 C 47.65625 83.882813 49.453125 83.882813 51.253906 83.882813 C 51.253906 76.570313 51.253906 69.257813 51.253906 61.945313 C 57.511719 65.355469 60.847656 67.394531 64.789063 67.988281 C 68.925781 68.609375 73.730469 67.636719 76.726563 64.167969 C 79.726563 60.699219 80.921875 54.734375 79.402344 49.933594 C 77.882813 45.128906 73.652344 41.488281 70.558594 39.441406 C 67.464844 37.394531 65.507813 36.941406 60.71875 33.996094 C 55.929688 31.046875 48.3125 25.605469 45.855469 17.191406 "/>
<path style=" stroke:none;fill-rule:nonzero;fill:rgb(0.392151%,39.598083%,62.693787%);fill-opacity:1;" d="M 40.460938 54.175781 C 40.460938 48.316406 40.460938 42.453125 40.460938 36.59375 C 37.367188 39.273438 34.675781 40.3125 32.347656 41.28125 C 29.472656 42.472656 27.160156 43.550781 25.023438 45.027344 C 22.890625 46.507813 20.9375 48.382813 19.929688 50.25 C 18.921875 52.121094 18.859375 53.980469 19.390625 55.824219 C 19.917969 57.667969 21.042969 59.488281 23.019531 60.121094 C 24.996094 60.753906 27.828125 60.195313 30.085938 59.359375 C 32.195313 58.574219 33.804688 57.550781 40.460938 54.175781 "/>
<path style=" stroke:none;fill-rule:nonzero;fill:rgb(0.392151%,39.598083%,62.693787%);fill-opacity:1;" d="M 51.253906 54.175781 C 51.253906 48.316406 51.253906 42.453125 51.253906 36.59375 C 54.34375 39.273438 57.039063 40.3125 59.367188 41.28125 C 62.238281 42.472656 64.554688 43.550781 66.6875 45.027344 C 68.824219 46.507813 70.777344 48.382813 71.78125 50.25 C 72.789063 52.121094 72.851563 53.980469 72.324219 55.824219 C 71.792969 57.667969 70.671875 59.488281 68.695313 60.121094 C 66.71875 60.753906 63.886719 60.195313 61.628906 59.359375 C 59.515625 58.574219 57.90625 57.550781 51.253906 54.175781 "/>
</g>
</svg>
