<svg xmlns="http://www.w3.org/2000/svg" xmlns:xlink="http://www.w3.org/1999/xlink" width="300" height="300" viewBox="0 0 300 300">
  <defs>
    <clipPath id="clip-ssangyong-logo">
      <rect width="300" height="300"/>
    </clipPath>
  </defs>
  <g id="ssangyong-logo" clip-path="url(#clip-ssangyong-logo)">
    <g id="ssangyong-logo-2" data-name="ssangyong-logo" transform="translate(11.5 78.56)">
      <path id="Path_1806" data-name="Path 1806" d="M260.922,53.8c-7.121-26.112-40.829-39.4-40.829-39.4-9.02-3.323-5.222,1.9-5.222,1.9S253.8,34.332,253.8,59.02c0,30.859-42.253,39.879-42.253,39.879C250,86.555,250,60.444,250,60.444c-.475-26.112-35.132-44.152-35.132-44.152-13.293-7.6-20.414-9.5-20.414-9.5-17.091-5.7-11.869.95-11.869.95s52.223,16.616,52.223,52.7c0,37.031-72.638,48.9-72.638,48.9,68.365-12.818,68.365-48.425,68.365-48.425-.475-32.283-47.95-53.173-47.95-53.173-7.121-3.8-19.465-7.121-19.465-7.121C151.729-1.749,158.375,3,158.375,3c46.051,26.586,46.051,56.5,46.051,56.5,0,32.758-30.384,41.3-30.384,41.3-8.546,3.323-25.637,6.172-25.637,6.172-2.849.95-4.748,2.849-4.748,4.748,0,.95,0,1.9.95,2.374a89.039,89.039,0,0,0,7.121,5.7c1.9,1.9,3.323,4.273,3.323,6.647,0,6.172-7.121,11.394-16.142,11.394h-.95c-9.02,0-16.142-5.222-16.142-11.394a8.29,8.29,0,0,1,3.323-6.647s5.7-4.273,7.121-5.7a3.626,3.626,0,0,0,.95-2.374c0-2.374-1.9-4.273-4.748-4.748,0,0-17.091-2.849-25.637-6.172,0,0-30.384-8.071-30.384-41.3,0,0,0-29.435,46.051-56.5,0,0,6.172-4.748-4.748-2.374,0,0-12.344,3.323-19.465,7.121,0,0-47.95,20.414-47.95,53.173,0,0,0,36.081,68.365,48.425,0,0-72.638-11.869-72.638-48.9,0-36.081,52.223-52.7,52.223-52.7S99.98,1.1,82.414,6.8c0,0-7.121,1.9-20.415,9.5,0,0-34.182,18.041-35.132,44.152,0,0,0,26.112,38.455,38.455,0,0-42.253-9.02-42.253-39.879C23.07,34.332,62,16.292,62,16.292s3.8-5.222-5.222-1.9c0,0-33.708,13.293-40.829,38.93,0,0-2.374,9.97.95,17.091,3.8,8.546,13.768,23.263,38.93,31.334,0,0,11.394,4.748,57.445,13.768l2.849.475s1.9.95.475,2.374l-6.172,5.222s-9.5,7.121,3.8,13.293a38.664,38.664,0,0,1,13.768,9.02,18.333,18.333,0,0,0,9.97,3.8h1.424a15,15,0,0,0,9.97-3.8,38.664,38.664,0,0,1,13.768-9.02c13.293-6.172,3.8-13.293,3.8-13.293l-6.647-4.748c-1.424-1.424.475-2.374.475-2.374l2.849-.475c46.051-9.02,57.445-13.768,57.445-13.768,25.162-8.071,35.132-22.788,38.93-31.334,2.849-7.6.949-17.091.949-17.091Z" transform="translate(0 0)" fill="#060d3c"/>
    </g>
  </g>
</svg>
